<?xml version="1.0" standalone="no"?><!DOCTYPE svg PUBLIC "-//W3C//DTD SVG 1.1//EN" "http://www.w3.org/Graphics/SVG/1.1/DTD/svg11.dtd"><svg class="icon" width="200px" height="200.00px" viewBox="0 0 1024 1024" version="1.1" xmlns="http://www.w3.org/2000/svg"><path d="M512 446.976m-435.2 0a435.2 435.2 0 1 0 870.4 0 435.2 435.2 0 1 0-870.4 0Z" fill="#FCD684" /><path d="M868.864 1011.2H155.136c-30.72 0-44.544-30.72-31.744-66.048l44.032-122.368c9.216-26.112 36.864-46.592 60.928-46.592h566.784c24.576 0 51.712 20.48 60.928 46.592l44.032 122.368c13.312 35.328-0.512 66.048-31.232 66.048z" fill="#F55569" /><path d="M512 893.952m-69.12 0a69.12 69.12 0 1 0 138.24 0 69.12 69.12 0 1 0-138.24 0Z" fill="#F55569" /><path d="M714.24 580.096l-157.184-157.184c-25.6-25.6-67.072-25.6-92.672 0L307.2 580.096c-41.472 41.472-12.288 112.128 46.592 112.128h313.856c58.88 0 88.064-70.656 46.592-112.128z" fill="#09C58F" /><path d="M688.64 428.544l-137.216-137.216c-22.528-22.528-58.88-22.528-81.408 0L333.312 428.544c-36.352 35.84-10.752 97.792 40.448 97.792h274.432c51.2 0 76.8-61.952 40.448-97.792z" fill="#09C58F" /><path d="M630.784 280.064l-92.672-92.672c-15.36-15.36-39.424-15.36-54.784 0l-92.16 92.672c-24.576 24.576-7.168 66.048 27.136 66.048h184.832c34.816 0 51.712-41.984 27.648-66.048z" fill="#09C58F" /><path d="M460.8 346.112m-38.912 0a38.912 38.912 0 1 0 77.824 0 38.912 38.912 0 1 0-77.824 0Z" fill="#FCD684" /><path d="M592.896 461.312m-38.912 0a38.912 38.912 0 1 0 77.824 0 38.912 38.912 0 1 0-77.824 0Z" fill="#B975D4" /><path d="M429.568 596.992m-38.912 0a38.912 38.912 0 1 0 77.824 0 38.912 38.912 0 1 0-77.824 0Z" fill="#F55569" /><path d="M463.872 654.336h93.696v121.856H463.872z" fill="#09C58F" /></svg>