<?xml version="1.0" standalone="no"?><!DOCTYPE svg PUBLIC "-//W3C//DTD SVG 1.1//EN" "http://www.w3.org/Graphics/SVG/1.1/DTD/svg11.dtd"><svg class="icon" width="200px" height="200.00px" viewBox="0 0 1024 1024" version="1.1" xmlns="http://www.w3.org/2000/svg"><path d="M819.2 502.784L924.16 322.56c16.896-29.184-6.656-77.312-53.76-107.008L584.192 34.816C508.928-12.8 437.76 20.48 471.552 87.552l181.248 360.96c33.792 67.584 138.752 101.376 166.4 54.272z" fill="#F55569" /><path d="M918.016 609.792l-312.32-532.48c-51.2-87.04-133.632-87.04-184.832 0l-312.32 532.48c-82.432 140.288-24.064 380.416 92.672 380.416h625.152c115.712 0 174.08-240.128 91.648-380.416z" fill="#F55569" /><path d="M902.144 990.208h-778.24c-60.416 0-109.568-49.152-109.568-109.568v-139.264c0-60.416 49.152-109.568 109.568-109.568h778.24c60.416 0 109.568 49.152 109.568 109.568V880.64c0 60.416-49.152 109.568-109.568 109.568z" fill="#FCD684" /><path d="M929.792 282.112m-94.208 0a94.208 94.208 0 1 0 188.416 0 94.208 94.208 0 1 0-188.416 0Z" fill="#F8B184" /></svg>