<?xml version="1.0" standalone="no"?><!DOCTYPE svg PUBLIC "-//W3C//DTD SVG 1.1//EN" "http://www.w3.org/Graphics/SVG/1.1/DTD/svg11.dtd"><svg class="icon" width="200px" height="200.00px" viewBox="0 0 1024 1024" version="1.1" xmlns="http://www.w3.org/2000/svg"><path d="M507.251935 364.136333a161.792 193.536 30 1 0 193.536-335.214185 161.792 193.536 30 1 0-193.536 335.214185Z" fill="#F8B184" /><path d="M302.691666 254.3259a161.792 135.168 64.734 1 0 244.474574-115.385161 161.792 135.168 64.734 1 0-244.474574 115.385161Z" fill="#FCD684" /><path d="M768.512 1019.392H262.656c-67.072 0-126.464-49.664-132.096-112.64L80.896 364.544c-7.68-82.432 51.712-152.064 131.584-152.064h605.696c79.872 0 139.264 69.632 131.584 152.064l-49.664 542.208c-5.12 62.464-64.512 112.64-131.584 112.64z" fill="#F55569" /><path d="M582.144 1019.392h-133.12L409.6 212.992h211.968z" fill="#FCD684" /></svg>