<?xml version="1.0" standalone="no"?><!DOCTYPE svg PUBLIC "-//W3C//DTD SVG 1.1//EN" "http://www.w3.org/Graphics/SVG/1.1/DTD/svg11.dtd"><svg class="icon" width="200px" height="200.00px" viewBox="0 0 1024 1024" version="1.1" xmlns="http://www.w3.org/2000/svg"><path d="M114.176 365.056m-105.472 0a105.472 105.472 0 1 0 210.944 0 105.472 105.472 0 1 0-210.944 0Z" fill="#FCD684" /><path d="M811.008 519.168h-13.312c-45.056 0-82.944-37.888-82.944-96.256V213.504H189.44V721.92c0 112.128 90.624 202.752 202.752 202.752h419.328c112.128 0 202.752-90.624 202.752-202.752-0.512-112.128-91.136-202.752-203.264-202.752z" fill="#F55569" /><path d="M514.56 441.856c32.256 0 32.256-30.208 64-30.208 32.256 0 32.256 30.208 64 30.208 32.256 0 32.256-30.208 64-30.208 3.072 0 5.632 0.512 7.68 1.024V299.52H189.44v112.128c1.536 0 3.072-0.512 4.608-0.512 32.256 0 32.256 30.208 64 30.208 32.256 0 32.256-30.208 64-30.208 32.256 0 32.256 30.208 64 30.208 32.256 0 32.256-30.208 64-30.208 32.256 0.512 32.256 30.72 64.512 30.72z" fill="#FCD684" /><path d="M706.048 299.52H198.144c-56.32 0-102.4-46.08-102.4-102.4s46.08-102.4 102.4-102.4h507.904c56.32 0 102.4 46.08 102.4 102.4s-46.08 102.4-102.4 102.4z" fill="#09C58F" /><path d="M212.48 365.056m-105.472 0a105.472 105.472 0 1 0 210.944 0 105.472 105.472 0 1 0-210.944 0Z" fill="#F8B184" /></svg>