<?xml version="1.0" standalone="no"?><!DOCTYPE svg PUBLIC "-//W3C//DTD SVG 1.1//EN" "http://www.w3.org/Graphics/SVG/1.1/DTD/svg11.dtd"><svg class="icon" width="200px" height="200.00px" viewBox="0 0 1024 1024" version="1.1" xmlns="http://www.w3.org/2000/svg"><path d="M453.632 637.44a308.224 264.192 90 1 0 528.384 0 308.224 264.192 90 1 0-528.384 0Z" fill="#09C58F" /><path d="M701.44 936.96l-27.648 45.056c-7.68 12.8 1.536 28.672 16.384 28.672h55.808c14.848 0 24.064-16.384 16.384-28.672l-27.648-45.056c-8.192-11.776-25.6-11.776-33.28 0z" fill="#09C58F" /><path d="M38.912 437.248a423.936 363.008 90 1 0 726.016 0 423.936 363.008 90 1 0-726.016 0Z" fill="#F55569" /><path d="M379.392 849.408L340.992 911.36c-10.752 17.408 2.048 39.936 22.016 39.936h76.288c20.48 0 32.768-22.528 22.016-39.936l-38.4-61.952c-9.216-16.384-33.28-16.384-43.52 0z" fill="#F55569" /><path d="M359.936 344.576l-28.16-4.096c-11.264-1.536-23.04 2.56-30.72 10.752L281.6 372.224c-20.48 20.992-56.32 10.24-60.928-18.432l-4.608-28.16c-2.048-11.264-9.216-20.992-19.968-26.112l-26.112-12.288c-26.624-12.288-27.136-49.664-1.536-62.976l25.6-13.312c10.24-5.12 17.408-15.36 18.944-27.136l3.584-28.672c3.584-29.184 38.912-41.472 59.904-20.992l20.48 19.968c8.192 8.192 19.968 11.776 31.232 9.728l28.16-5.632c28.672-5.632 51.2 24.064 38.4 50.176l-12.8 25.6c-5.12 10.24-5.12 22.528 0.512 32.768l13.824 25.088c13.824 26.624-7.168 56.832-36.352 52.736z" fill="#FCD684" /></svg>