<?xml version="1.0" standalone="no"?><!DOCTYPE svg PUBLIC "-//W3C//DTD SVG 1.1//EN" "http://www.w3.org/Graphics/SVG/1.1/DTD/svg11.dtd"><svg class="icon" width="200px" height="200.00px" viewBox="0 0 1024 1024" version="1.1" xmlns="http://www.w3.org/2000/svg"><path d="M296.96 302.08c8.704 8.704 17.92 15.36 28.672 20.48 7.68 4.096 17.92 2.048 23.552-4.608C377.344 284.672 414.72 261.12 457.216 249.856c9.216-2.56 14.848-10.752 14.336-19.968-1.024-17.408 1.024-34.816 5.632-52.224 13.824-50.688 50.176-96.256 99.328-128 15.872-10.24 10.752-34.816-8.192-36.864C483.328 1.024 399.36 15.36 324.608 49.152c-30.72 14.336-54.784 40.448-63.488 73.216v0.512c-18.432 68.608-4.608 138.752 35.84 179.2zM194.56 562.176c36.352 9.728 72.192 7.168 99.84-7.68 3.072-1.536 6.144-3.072 8.704-5.12 7.68-5.12 10.752-14.848 7.68-23.04-14.336-39.424-16.896-82.944-5.12-126.464 2.56-9.216-2.048-19.456-10.24-23.552-15.36-8.192-29.184-18.432-41.984-30.72-37.376-37.376-58.368-91.648-61.44-150.016-1.024-18.944-24.576-26.624-36.352-11.264-34.304 45.056-60.928 97.28-76.288 155.648-1.536 5.12-2.56 10.24-3.584 15.36-19.968 85.504 24.064 175.616 107.008 204.288 4.096 0.512 7.68 1.536 11.776 2.56zM245.76 750.592c-1.024-4.096-2.048-8.192-2.56-12.288-6.144-30.208-7.168-60.416-3.584-90.624 1.536-13.824-7.68-24.576-23.04-26.624-21.504-2.56-41.472-8.192-59.904-16.384-13.824-6.144-31.744 8.192-27.648 21.504 11.776 39.936 33.792 77.824 66.56 112.64l9.216 9.216c5.632 5.632 11.776 10.752 18.432 15.36 9.216 6.144 25.088-2.048 22.528-12.8zM923.136 283.648c-31.744-76.288-84.992-143.872-153.6-192.512-27.648-19.456-62.976-27.136-95.744-18.432h-0.512c-68.608 18.432-122.368 65.536-137.216 120.32-3.072 11.776-4.096 23.552-3.584 35.328 0.512 9.216 7.68 16.384 16.384 17.92 5.632 1.024 10.752 2.048 16.384 3.584 37.888 10.24 70.144 29.696 96.256 55.808 6.656 6.656 16.896 7.68 24.576 2.56 46.592-29.696 104.448-33.792 156.672-19.968 17.92 4.608 35.328 11.264 51.712 19.968 16.896 9.216 35.84-7.168 28.672-24.576zM826.88 348.16c-19.456-5.12-67.584-13.824-108.544 12.288-7.68 5.12-10.752 14.848-7.68 23.04 14.336 39.424 16.896 82.944 5.12 126.464v0.512c-2.56 9.216 2.048 19.456 10.24 23.552 15.36 7.68 29.184 17.92 41.984 30.72 37.376 37.376 58.368 91.648 61.44 150.016 1.024 18.944 24.576 26.624 36.352 11.264 34.304-45.056 60.928-97.28 76.288-155.648 1.536-5.12 2.56-10.24 3.584-15.36 19.968-85.504-24.064-175.616-107.008-204.288-3.584-0.512-7.68-1.536-11.776-2.56zM495.104 929.792l35.328-172.544c5.632-28.16-5.12-41.472-24.576-29.184l-118.784 74.24c-31.232 19.456-96.256 88.064-19.968 178.688s118.784-5.632 128-51.2z" fill="#09C58F" /><path d="M560.64 929.792l-35.328-172.544c-5.632-28.16 5.12-41.472 24.576-29.184l118.784 74.24c31.232 19.456 96.256 88.064 19.968 178.688s-118.272-5.632-128-51.2z" fill="#09C58F" /><path d="M662.528 813.568L542.72 734.72c-19.456-12.8-19.456-33.792 0-46.592l119.808-78.848c31.744-20.992 112.64-44.544 112.64 99.84s-81.408 125.44-112.64 104.448z" fill="#F55569" /><path d="M393.728 813.568l119.808-78.848c19.456-12.8 19.456-33.792 0-46.592L393.728 609.28c-31.744-20.992-112.64-44.544-112.64 99.84s80.896 125.44 112.64 104.448z" fill="#F55569" /><path d="M428.544 743.936l65.024-25.088c10.752-4.096 10.752-10.752 0-14.848l-65.024-25.088c-17.408-6.656-61.44-14.336-61.44 32.256s44.032 39.424 61.44 32.768zM627.2 743.936l-65.024-25.088c-10.752-4.096-10.752-10.752 0-14.848l65.024-25.088c17.408-6.656 61.44-14.336 61.44 32.256s-44.032 39.424-61.44 32.768z" fill="#FCD684" /><path d="M552.448 781.312h-49.152c-16.384 0-29.696-13.312-29.696-29.696v-85.504c0-16.384 13.312-29.696 29.696-29.696h49.152c16.384 0 29.696 13.312 29.696 29.696v85.504c0 16.384-13.312 29.696-29.696 29.696z" fill="#FCD684" /></svg>