<?xml version="1.0" standalone="no"?><!DOCTYPE svg PUBLIC "-//W3C//DTD SVG 1.1//EN" "http://www.w3.org/Graphics/SVG/1.1/DTD/svg11.dtd"><svg class="icon" width="200px" height="200.00px" viewBox="0 0 1024 1024" version="1.1" xmlns="http://www.w3.org/2000/svg"><path d="M735.232 631.808c0-78.336 235.52-194.048 171.008-309.76-36.864-66.56-129.024-19.968-178.176 3.584-19.968 9.728-41.472-10.24-33.28-31.232 9.728-25.6 14.336-53.76 12.288-83.456-6.144-96.768-84.992-175.104-182.272-181.76C411.136 22.016 316.416 112.64 316.416 224.768c0 24.576 4.608 48.128 12.8 69.632 8.192 20.992-13.312 40.96-33.28 31.232-49.152-23.552-141.312-70.144-178.176-3.584-64.512 115.712 171.008 231.424 171.008 309.76s-217.6 212.48-139.264 344.064 283.648-96.256 362.496-96.256 284.16 227.84 362.496 96.256-139.264-265.728-139.264-344.064z" fill="#FCD684" /><path d="M512 584.192m-46.08 0a46.08 46.08 0 1 0 92.16 0 46.08 46.08 0 1 0-92.16 0Z" fill="#F55569" /><path d="M479.543804 482.57956a46.08 46.08 0 1 0 65.165824-65.168098 46.08 46.08 0 1 0-65.165824 65.168098Z" fill="#F55569" /><path d="M512 718.336m-46.08 0a46.08 46.08 0 1 0 92.16 0 46.08 46.08 0 1 0-92.16 0Z" fill="#F55569" /><path d="M211.456 292.352L120.32 414.72c9.216 17.92 22.528 35.84 37.376 52.736l114.176-153.6c-18.432-7.68-39.424-16.384-60.416-21.504zM813.568 291.84c-20.992 5.12-41.984 13.824-60.416 22.016l113.664 153.088c14.848-17.408 28.16-35.328 37.376-53.248L813.568 291.84zM710.656 986.624l146.432-169.984c-11.264-17.408-24.064-34.816-36.864-51.2l-163.328 189.952c17.408 10.752 35.84 22.016 53.76 31.232zM368.128 954.88L204.8 764.928c-13.312 16.384-26.112 33.792-36.864 51.2l146.432 170.496c17.408-9.728 35.84-20.48 53.76-31.744z" fill="#F55569" /></svg>