<?xml version="1.0" standalone="no"?><!DOCTYPE svg PUBLIC "-//W3C//DTD SVG 1.1//EN" "http://www.w3.org/Graphics/SVG/1.1/DTD/svg11.dtd"><svg class="icon" width="200px" height="200.00px" viewBox="0 0 1024 1024" version="1.1" xmlns="http://www.w3.org/2000/svg"><path d="M849.408 799.744c-14.336-12.288-35.84-10.752-48.128 3.584-2.048 2.048-41.472 45.568-114.176 45.568h-13.312v-120.32c0-18.432-14.848-33.28-33.28-33.28s-33.28 14.848-33.28 33.28v120.32H385.024v-120.32c0-18.432-14.848-33.28-33.28-33.28s-33.28 14.848-33.28 33.28v120.32h-13.312c-73.216 0-112.128-43.008-114.176-45.568-12.288-14.336-33.792-15.872-48.128-3.584a34.7136 34.7136 0 0 0-4.096 48.64c2.56 3.072 60.416 69.632 166.4 69.632H686.08c106.496 0 164.352-66.56 166.4-69.632 12.8-14.848 11.264-36.352-3.072-48.64z" fill="#09C58F" /><path d="M29.696 444.928c-7.168-88.064 114.176-74.24 163.328-41.472 60.416 40.448 100.864 76.8 226.816 76.8 172.032 0.512 210.432-93.184 229.888-141.824C713.216 179.2 983.552 122.88 993.28 258.56c9.216 136.192-23.04 508.416-254.464 508.416h-450.56C159.744 766.976 35.84 517.12 29.696 444.928z" fill="#F55569" /><path d="M901.12 229.376c64.512 0.512 91.648 29.184 91.648 29.184-3.584-53.76-46.592-77.824-100.352-77.824-84.992-0.512-203.264 58.368-243.2 157.184-19.456 48.64-57.856 142.848-229.376 142.336-125.952-0.512-166.4-36.352-226.816-76.8-21.504-14.336-57.344-25.088-89.6-25.6-40.96 0-77.312 16.896-73.216 66.56 0 0 29.696-12.288 71.168-12.288 23.04 0 48.128 8.704 59.392 16.384 5.12 3.584 10.24 7.168 14.848 10.24C232.448 499.2 287.744 537.6 421.888 537.6c210.944 0.512 259.072-124.928 279.04-176.128 30.72-79.36 130.048-132.608 200.192-132.096" fill="#FCD684" /></svg>