<?xml version="1.0" standalone="no"?><!DOCTYPE svg PUBLIC "-//W3C//DTD SVG 1.1//EN" "http://www.w3.org/Graphics/SVG/1.1/DTD/svg11.dtd"><svg class="icon" width="200px" height="200.00px" viewBox="0 0 1024 1024" version="1.1" xmlns="http://www.w3.org/2000/svg"><path d="M703.488 864.256H296.448V437.76c0-40.448 32.768-73.216 73.216-73.216H629.76c40.448 0 73.216 32.768 73.216 73.216v426.496z" fill="#F55569" /><path d="M601.088 178.688c74.752 110.592 5.12 185.856-92.672 185.856-77.824 0-140.8-19.968-140.8-122.88 0-75.264 115.712-173.568 178.176-221.184 6.656-5.12 17.92-0.512 15.872 6.656-10.24 29.184-10.24 78.336 39.424 151.552z" fill="#FCD684" /><path d="M556.544 226.816c41.984 74.24 2.56 124.928-52.224 124.928-43.52 0-78.848-13.312-78.848-82.432 0-50.688 65.024-116.736 99.84-148.48 3.584-3.584 10.24 0 8.704 4.608-5.12 19.456-5.12 52.224 22.528 101.376z" fill="#F55569" /><path d="M735.744 1003.52h-450.56c-77.312 0-140.8-63.488-140.8-140.8 0-29.696 24.576-54.272 54.272-54.272h624.128c29.696 0 54.272 24.576 54.272 54.272-0.512 77.312-63.488 140.8-141.312 140.8z" fill="#09C58F" /><path d="M852.48 887.808c-11.776 7.168-26.624 9.216-40.448 3.584-23.04-9.216-34.304-35.328-25.088-58.88l62.464-156.672c10.752-26.624 9.728-54.784-3.072-80.384-12.288-25.6-34.304-44.032-61.44-52.224l-5.632-1.536c-24.064-7.168-37.376-32.256-30.208-56.32 7.168-24.064 32.256-37.376 56.32-30.208l5.632 1.536c51.2 15.36 93.696 51.712 117.248 99.328s25.088 103.936 5.632 153.6l-62.464 156.672c-4.096 9.216-10.752 16.896-18.944 21.504z" fill="#09C58F" /></svg>