<?xml version="1.0" standalone="no"?><!DOCTYPE svg PUBLIC "-//W3C//DTD SVG 1.1//EN" "http://www.w3.org/Graphics/SVG/1.1/DTD/svg11.dtd"><svg class="icon" width="200px" height="200.00px" viewBox="0 0 1024 1024" version="1.1" xmlns="http://www.w3.org/2000/svg"><path d="M653.824 297.472c-48.128-20.992-70.656-77.824-49.664-125.952l43.52-99.328c20.992-48.128 77.824-70.656 125.952-49.664 48.128 20.992 70.656 77.824 49.664 125.952l-43.52 99.328c-20.992 48.64-77.824 70.656-125.952 49.664z" fill="#F8B184" /><path d="M517.12 864.768c-2.56-11.776-6.656-23.552-12.8-34.304-27.648-49.664-26.112-63.488-4.096-114.176l-49.152-21.504c-22.016 51.2-31.232 61.44-86.528 74.752-11.776 3.072-23.04 7.68-33.792 13.824-21.504 12.8-39.936 32.256-50.688 57.344-27.648 63.488 1.024 137.216 64.512 164.864s137.216-1.024 164.864-64.512c11.264-25.088 13.312-51.712 7.68-76.288z" fill="#F55569" /><path d="M848.896 913.92c7.168-58.88-3.072-119.808-28.16-177.664-6.144-13.824-6.144-29.184 0-43.008l71.68-164.352c68.608-156.672-3.584-340.992-160.768-409.6-156.672-68.608-340.992 3.584-409.6 160.768l-71.68 164.352c-6.144 13.824-17.408 24.576-31.744 29.184-59.392 20.48-111.104 54.272-149.504 99.84-29.184 34.304-7.68 88.576 41.984 110.592L424.96 821.248l313.856 137.216c50.176 21.504 104.448 0.512 110.08-44.544z" fill="#FCD684" /><path d="M295.36768 340.49024l570.60352 249.09824-41.17504 94.32064L254.19264 434.81088z" fill="#09C58F" /></svg>