<?xml version="1.0" standalone="no"?><!DOCTYPE svg PUBLIC "-//W3C//DTD SVG 1.1//EN" "http://www.w3.org/Graphics/SVG/1.1/DTD/svg11.dtd"><svg class="icon" width="200px" height="200.00px" viewBox="0 0 1024 1024" version="1.1" xmlns="http://www.w3.org/2000/svg"><path d="M587.264 9.216c-154.112 0-280.576 126.464-280.576 280.576v177.664c0-57.344-47.104-104.448-104.448-104.448-14.336 0-28.16 3.072-40.448 8.192-48.64 20.48-70.656 77.824-52.736 127.488l92.672 355.328h665.6V289.792c0.512-154.112-125.44-280.576-280.064-280.576z" fill="#F55867" /><path d="M293.376 696.32c-47.616 0-47.616 18.944-95.232 18.944-12.288 0-22.016-2.048-29.696-5.12l33.792 143.872h665.6V696.32h-3.584c-47.616 0-47.616 18.944-95.232 18.944s-47.616-18.944-95.232-18.944-47.616 18.944-95.232 18.944-47.616-18.944-95.232-18.944-47.616 18.944-95.232 18.944c-47.104 0-47.104-18.944-94.72-18.944z" fill="#FCD684" /><path d="M851.456 1013.76H200.192c-54.272 0-98.816-44.544-98.816-98.816 0-54.272 44.544-98.816 98.816-98.816h651.776c54.272 0 98.816 44.544 98.816 98.816-0.512 54.272-45.056 98.816-99.328 98.816z" fill="#09C58F" /></svg>